<svg width="683" height="153" viewBox="0 0 683 153" fill="none" xmlns="http://www.w3.org/2000/svg">
<path d="M429.795 25.293C438.199 25.293 444.75 29.4231 449.394 37.4727L449.888 38.3291L449.037 38.833L440.547 43.8643L439.676 44.3799L439.171 43.5029C437.605 40.7843 436.2 39.1796 434.996 38.4775L434.979 38.4668L434.961 38.4551C433.67 37.6287 431.942 37.1758 429.705 37.1758C427.001 37.1758 424.832 37.9371 423.124 39.4053L423.117 39.4111C421.42 40.8429 420.598 42.6021 420.598 44.7559C420.598 47.5151 422.612 49.9887 427.522 52.0059L434.441 54.8359H434.44C440.161 57.1487 444.447 60.0178 447.197 63.4932C449.964 66.9591 451.324 71.2013 451.324 76.1562C451.324 82.7826 449.104 88.3182 444.645 92.6836C440.163 97.0707 434.591 99.2578 427.998 99.2578C421.766 99.2578 416.543 97.4062 412.411 93.6523L412.406 93.6475C408.337 89.894 405.846 84.6479 404.862 78.0098L404.726 77.0869L405.637 76.8867L416.238 74.5508L417.317 74.3125L417.446 75.4102C417.893 79.2068 418.64 81.7086 419.572 83.0996L419.762 83.3633L419.771 83.376L419.78 83.3887C421.724 86.0881 424.547 87.4648 428.402 87.4648C431.418 87.4648 433.866 86.4661 435.821 84.4834C437.775 82.5025 438.768 79.993 438.768 76.875C438.768 75.6239 438.587 74.5096 438.24 73.5225L438.234 73.5078L438.23 73.4922C437.914 72.4895 437.399 71.577 436.678 70.749L436.666 70.7354L436.655 70.7227C435.956 69.8618 435.023 69.0452 433.836 68.2822L433.829 68.2783L433.822 68.2734C432.625 67.4755 431.184 66.709 429.489 65.9785H429.488L422.808 63.1982L422.802 63.1963C417.956 61.1481 414.241 58.593 411.733 55.4922C409.213 52.3748 407.951 48.7523 407.951 44.666C407.951 39.1632 410.07 34.5351 414.262 30.8457C418.449 27.1307 423.651 25.293 429.795 25.293ZM498.896 78.3574C498.896 81.8766 499.595 84.3318 500.826 85.8916C502.022 87.4062 503.842 88.2285 506.477 88.2285C509.111 88.2285 510.931 87.4062 512.127 85.8916C513.358 84.3318 514.057 81.8766 514.057 78.3574V52.2461H526.164V78.582C526.164 82.1644 525.72 85.3039 524.808 87.9795L524.804 87.9902L524.8 88.002C523.897 90.4535 522.339 92.6384 520.166 94.5596L520.159 94.5654C516.534 97.7138 511.946 99.2578 506.477 99.2578C501.035 99.2578 496.463 97.7129 492.839 94.5654L492.837 94.5645C490.635 92.6453 489.047 90.4624 488.112 88.0127V88.0117C487.206 85.7938 486.789 82.6208 486.789 78.582V52.2461H498.896V78.3574ZM581.328 98H569.176V94.6533C565.444 97.7036 561.264 99.2578 556.654 99.2578C550.387 99.2578 545.144 96.956 540.998 92.3701L540.989 92.3594C536.886 87.6918 534.855 81.8774 534.855 74.9883C534.855 68.2427 536.89 62.5455 540.996 57.9688C545.079 53.3545 550.247 51.0332 556.43 51.0332C561.135 51.0332 565.389 52.7123 569.176 55.9951V20.127H581.328V98ZM637.244 51.0332C643.815 51.0332 649.458 53.2187 654.117 57.583L654.565 58.0127L654.57 58.0166L653.865 58.7266L654.57 58.0176C659.257 62.6729 661.604 68.411 661.604 75.168C661.604 81.9844 659.242 87.7404 654.521 92.3682L654.516 92.373C649.768 96.9646 643.929 99.2578 637.064 99.2578C630.25 99.2578 624.495 96.9125 619.866 92.2217V92.2207C615.236 87.5876 612.93 81.7588 612.93 74.8086C612.93 68.2204 615.299 62.5877 620.013 57.9678C624.727 53.347 630.491 51.0332 637.244 51.0332ZM474.055 52.2461H481.916V63.6797H474.055V98H461.947V63.6797H457.635V52.2461H461.947V36.209H474.055V52.2461ZM604.193 98H592.086V52.2461H604.193V98ZM558.361 62.1523C555.182 62.1523 552.55 63.341 550.402 65.7598L550.016 66.2285C548.141 68.6069 547.188 71.5083 547.188 74.9883C547.188 78.9923 548.255 82.1586 550.312 84.5762C552.43 87.0235 555.06 88.2285 558.271 88.2285C561.757 88.2285 564.501 87.0429 566.601 84.6982C568.717 82.2457 569.805 79.1104 569.805 75.2129C569.805 71.3132 568.715 68.1768 566.597 65.7236L566.195 65.291C564.151 63.2013 561.564 62.1523 558.361 62.1523ZM637.244 62.1523C633.628 62.1523 630.775 63.3456 628.588 65.6963C626.391 68.0577 625.262 71.1254 625.262 74.9883C625.262 79.1765 626.376 82.3691 628.498 84.6846L628.704 84.9004C630.862 87.1052 633.678 88.2285 637.244 88.2285C640.961 88.2285 643.84 87.0426 645.99 84.7295C648.148 82.4083 649.271 79.2724 649.271 75.2129C649.271 71.2802 648.217 68.2141 646.189 65.916L645.99 65.6963C643.806 63.349 640.925 62.1523 637.244 62.1523ZM598.117 27.5391C600.204 27.5391 602.013 28.2847 603.487 29.7549C604.971 31.204 605.721 33.006 605.721 35.0977C605.721 37.1848 604.974 38.9933 603.504 40.4678C602.055 41.9514 600.254 42.7012 598.162 42.7012C596.071 42.7012 594.259 41.9525 592.783 40.4766C591.304 38.9972 590.559 37.1689 590.559 35.0527C590.559 33.0116 591.314 31.2325 592.783 29.7637C594.256 28.2912 596.051 27.5391 598.117 27.5391Z" fill="#9B9B9B"/>
<path d="M303.54 31C302.49 31 301.45 31.2075 300.48 31.6106C299.51 32.0138 298.629 32.6047 297.886 33.3497C297.143 34.0947 296.554 34.9791 296.152 35.9525C295.751 36.9258 295.544 37.9691 295.544 39.0227C295.544 40.0762 295.751 41.1195 296.152 42.0929C296.554 43.0663 297.143 43.9507 297.886 44.6957C298.629 45.4406 299.51 46.0316 300.48 46.4347C301.45 46.8379 302.49 47.0454 303.54 47.0453C304.59 47.0454 305.63 46.8379 306.601 46.4347C307.571 46.0316 308.452 45.4406 309.195 44.6957C309.937 43.9507 310.526 43.0663 310.928 42.0929C311.33 41.1195 311.537 40.0762 311.537 39.0227C311.537 37.9691 311.33 36.9258 310.928 35.9525C310.526 34.9791 309.937 34.0947 309.195 33.3497C308.452 32.6047 307.571 32.0138 306.601 31.6106C305.63 31.2074 304.59 31 303.54 31ZM136.102 31.1083V100.453H149V31.1083L136.102 31.1083ZM352.876 31.1083V55.299C348.838 52.7367 344.335 51.2913 340.204 51.2913C326.333 51.2913 315.088 61.891 315.088 76.6092C315.088 90.5351 325.723 101.824 340.204 101.824C351.745 101.824 366 95.418 366 69.8473V31.1083L352.876 31.1083ZM105.781 51.1713C91.7845 51.1713 80.438 61.853 80.438 76.5C80.4379 91.2846 91.7845 101.829 105.781 101.829C119.778 101.829 131.124 91.2846 131.124 76.5C131.124 62.5114 120.942 51.1713 105.781 51.1713ZM177.624 51.1713C164.565 51.1713 153.978 62.5114 153.978 76.5C153.978 90.4886 163.861 101.829 177.624 101.829C184.906 101.829 189.911 98.4757 193.124 93.7219V100.453H206.022V52.7758H193.124V59.2369C189.973 54.5608 185.026 51.1713 177.624 51.1713ZM241.095 51.1713C234.932 51.1713 229.975 53.2001 226.953 58.9648V52.7758H214.055V100.453H226.953V76.3854C226.953 67.2166 233.866 63.0907 241.095 63.0907V51.1713ZM266.438 51.1713C252.441 51.1713 241.095 61.853 241.095 76.5C241.095 91.2846 252.441 101.829 266.438 101.829C280.435 101.829 291.781 91.2846 291.781 76.5C291.781 62.5114 281.598 51.1713 266.438 51.1713ZM50.7956 51.285C31.5621 51.285 25 66.2467 25 83.262V122H38.1241V97.8102C42.1622 100.373 46.665 101.818 50.7956 101.818C64.6672 101.818 75.9124 91.2183 75.9124 76.5C75.9124 62.5741 65.8208 51.285 50.7956 51.285ZM296.759 52.7758V100.453H310.109V52.7758L296.759 52.7758ZM179.887 63.3199C184.299 63.3199 192.898 67.2166 192.898 76.5C192.898 83.9813 186.562 89.6801 179.887 89.6801C172.012 89.6801 167.102 84.0201 167.102 76.5C167.102 69.5088 171.854 63.3199 179.887 63.3199ZM340.318 63.429C346.766 63.429 352.423 68.8616 352.423 76.4058C352.423 81.1643 349.178 89.3308 340.318 89.3308C333.089 89.3308 327.985 82.6904 327.985 76.4058C327.985 69.2138 333.778 63.429 340.318 63.429ZM105.781 63.549C111.89 63.549 118 68.821 118 76.6145C118 84.2409 111.89 89.68 105.781 89.68C99.5588 89.68 93.562 84.2409 93.562 76.6145C93.562 68.9206 99.4453 63.549 105.781 63.549ZM266.438 63.549C272.547 63.549 278.657 68.821 278.657 76.6145C278.657 84.2409 272.547 89.68 266.438 89.68C260.216 89.68 254.219 84.2409 254.219 76.6145C254.219 68.9206 260.102 63.549 266.438 63.549ZM50.6825 63.7782C57.911 63.7782 63.0146 70.4186 63.0146 76.7031C63.0146 83.8952 57.2225 89.68 50.6825 89.68C44.2336 89.68 38.5766 84.2473 38.5766 76.7031C38.5766 71.9447 41.822 63.7782 50.6825 63.7782Z" fill="black"/>
</svg>
