<svg width="683" height="153" viewBox="0 0 683 153" fill="none" xmlns="http://www.w3.org/2000/svg">
<path d="M303.54 31C302.49 31 301.45 31.2075 300.48 31.6106C299.51 32.0138 298.629 32.6047 297.886 33.3497C297.143 34.0947 296.554 34.9791 296.152 35.9525C295.751 36.9258 295.544 37.9691 295.544 39.0227C295.544 40.0762 295.751 41.1195 296.152 42.0929C296.554 43.0663 297.143 43.9507 297.886 44.6957C298.629 45.4406 299.51 46.0316 300.48 46.4347C301.45 46.8379 302.49 47.0454 303.54 47.0453C304.59 47.0454 305.63 46.8379 306.601 46.4347C307.571 46.0316 308.452 45.4406 309.195 44.6957C309.937 43.9507 310.526 43.0663 310.928 42.0929C311.33 41.1195 311.537 40.0762 311.537 39.0227C311.537 37.9691 311.33 36.9258 310.928 35.9525C310.526 34.9791 309.937 34.0947 309.195 33.3497C308.452 32.6047 307.571 32.0138 306.601 31.6106C305.63 31.2074 304.59 31 303.54 31ZM136.102 31.1083V100.453H149V31.1083L136.102 31.1083ZM352.876 31.1083V55.299C348.838 52.7367 344.335 51.2913 340.204 51.2913C326.333 51.2913 315.088 61.891 315.088 76.6092C315.088 90.5351 325.723 101.824 340.204 101.824C351.745 101.824 366 95.418 366 69.8473V31.1083L352.876 31.1083ZM105.781 51.1713C91.7845 51.1713 80.438 61.853 80.438 76.5C80.4379 91.2846 91.7845 101.829 105.781 101.829C119.778 101.829 131.124 91.2846 131.124 76.5C131.124 62.5114 120.942 51.1713 105.781 51.1713ZM177.624 51.1713C164.565 51.1713 153.978 62.5114 153.978 76.5C153.978 90.4886 163.861 101.829 177.624 101.829C184.906 101.829 189.911 98.4757 193.124 93.7219V100.453H206.022V52.7758H193.124V59.2369C189.973 54.5608 185.026 51.1713 177.624 51.1713ZM241.095 51.1713C234.932 51.1713 229.975 53.2001 226.953 58.9648V52.7758H214.055V100.453H226.953V76.3854C226.953 67.2166 233.866 63.0907 241.095 63.0907V51.1713ZM266.438 51.1713C252.441 51.1713 241.095 61.853 241.095 76.5C241.095 91.2846 252.441 101.829 266.438 101.829C280.435 101.829 291.781 91.2846 291.781 76.5C291.781 62.5114 281.598 51.1713 266.438 51.1713ZM50.7956 51.285C31.5621 51.285 25 66.2467 25 83.262V122H38.1241V97.8102C42.1622 100.373 46.665 101.818 50.7956 101.818C64.6672 101.818 75.9124 91.2183 75.9124 76.5C75.9124 62.5741 65.8208 51.285 50.7956 51.285ZM296.759 52.7758V100.453H310.109V52.7758L296.759 52.7758ZM179.887 63.3199C184.299 63.3199 192.898 67.2166 192.898 76.5C192.898 83.9813 186.562 89.6801 179.887 89.6801C172.012 89.6801 167.102 84.0201 167.102 76.5C167.102 69.5088 171.854 63.3199 179.887 63.3199ZM340.318 63.429C346.766 63.429 352.423 68.8616 352.423 76.4058C352.423 81.1643 349.178 89.3308 340.318 89.3308C333.089 89.3308 327.985 82.6904 327.985 76.4058C327.985 69.2138 333.778 63.429 340.318 63.429ZM105.781 63.549C111.89 63.549 118 68.821 118 76.6145C118 84.2409 111.89 89.68 105.781 89.68C99.5588 89.68 93.562 84.2409 93.562 76.6145C93.562 68.9206 99.4453 63.549 105.781 63.549ZM266.438 63.549C272.547 63.549 278.657 68.821 278.657 76.6145C278.657 84.2409 272.547 89.68 266.438 89.68C260.216 89.68 254.219 84.2409 254.219 76.6145C254.219 68.9206 260.102 63.549 266.438 63.549ZM50.6825 63.7782C57.911 63.7782 63.0146 70.4186 63.0146 76.7031C63.0146 83.8952 57.2225 89.68 50.6825 89.68C44.2336 89.68 38.5766 84.2473 38.5766 76.7031C38.5766 71.9447 41.822 63.7782 50.6825 63.7782Z" fill="black"/>
<path d="M435.527 39.9727L427.037 45.0039C425.45 42.2487 423.938 40.4518 422.5 39.6133C421.003 38.6549 419.071 38.1758 416.705 38.1758C413.8 38.1758 411.389 38.9993 409.473 40.6465C407.556 42.2637 406.598 44.3001 406.598 46.7559C406.598 50.14 409.113 52.8652 414.145 54.9316L421.062 57.7617C426.693 60.0378 430.811 62.8229 433.416 66.1172C436.021 69.3815 437.324 73.3945 437.324 78.1562C437.324 84.5352 435.198 89.806 430.945 93.9688C426.663 98.1615 421.347 100.258 414.998 100.258C408.979 100.258 404.007 98.4759 400.084 94.9121C396.221 91.3483 393.81 86.332 392.852 79.8633L403.453 77.5273C403.932 81.6003 404.771 84.4154 405.969 85.9727C408.125 88.9674 411.27 90.4648 415.402 90.4648C418.667 90.4648 421.377 89.3717 423.533 87.1855C425.689 84.9993 426.768 82.2292 426.768 78.875C426.768 77.5273 426.573 76.2995 426.184 75.1914C425.824 74.0534 425.24 73.0202 424.432 72.0918C423.653 71.1335 422.635 70.25 421.377 69.4414C420.119 68.6029 418.622 67.8092 416.885 67.0605L410.191 64.2754C400.698 60.2624 395.951 54.3926 395.951 46.666C395.951 41.4551 397.943 37.0977 401.926 33.5938C405.909 30.0599 410.865 28.293 416.795 28.293C424.791 28.293 431.035 32.1862 435.527 39.9727Z" fill="#9B9B9B"/>
<path d="M460.055 64.6797V99H449.947V64.6797H445.635V55.2461H449.947V39.209H460.055V55.2461H467.916V64.6797H460.055Z" fill="#9B9B9B"/>
<path d="M484.896 55.2461V80.3574C484.896 87.6048 487.757 91.2285 493.477 91.2285C499.197 91.2285 502.057 87.6048 502.057 80.3574V55.2461H512.164V80.582C512.164 84.0859 511.73 87.1107 510.861 89.6562C510.023 91.9323 508.57 93.9837 506.504 95.8105C503.09 98.7754 498.747 100.258 493.477 100.258C488.236 100.258 483.908 98.7754 480.494 95.8105C478.398 93.9837 476.915 91.9323 476.047 89.6562C475.208 87.6198 474.789 84.5951 474.789 80.582V55.2461H484.896Z" fill="#9B9B9B"/>
<path d="M557.176 23.127H567.328V99H557.176V94.418C553.193 98.3112 548.686 100.258 543.654 100.258C537.665 100.258 532.693 98.0716 528.74 93.6992C524.817 89.237 522.855 83.6667 522.855 76.9883C522.855 70.4596 524.817 65.0091 528.74 60.6367C532.633 56.2344 537.53 54.0332 543.43 54.0332C548.551 54.0332 553.133 56.1296 557.176 60.3223V23.127ZM533.188 76.9883C533.188 81.181 534.311 84.5951 536.557 87.2305C538.863 89.8958 541.768 91.2285 545.271 91.2285C549.015 91.2285 552.04 89.9408 554.346 87.3652C556.652 84.6999 557.805 81.3158 557.805 77.2129C557.805 73.11 556.652 69.7259 554.346 67.0605C552.04 64.4551 549.045 63.1523 545.361 63.1523C541.887 63.1523 538.982 64.4701 536.646 67.1055C534.34 69.7708 533.188 73.0651 533.188 76.9883Z" fill="#9B9B9B"/>
<path d="M590.193 55.2461V99H580.086V55.2461H590.193ZM578.559 37.0527C578.559 35.2858 579.202 33.7585 580.49 32.4707C581.778 31.1829 583.32 30.5391 585.117 30.5391C586.944 30.5391 588.501 31.1829 589.789 32.4707C591.077 33.7285 591.721 35.2708 591.721 37.0977C591.721 38.9245 591.077 40.4818 589.789 41.7695C588.531 43.0573 586.989 43.7012 585.162 43.7012C583.335 43.7012 581.778 43.0573 580.49 41.7695C579.202 40.4818 578.559 38.9095 578.559 37.0527Z" fill="#9B9B9B"/>
<path d="M600.93 76.8086C600.93 70.4896 603.191 65.1139 607.713 60.6816C612.235 56.2493 617.745 54.0332 624.244 54.0332C630.773 54.0332 636.313 56.2643 640.865 60.7266C645.357 65.1888 647.604 70.6693 647.604 77.168C647.604 83.7266 645.342 89.222 640.82 93.6543C636.268 98.0566 630.683 100.258 624.064 100.258C617.506 100.258 612.01 98.0117 607.578 93.5195C603.146 89.0872 600.93 83.5169 600.93 76.8086ZM611.262 76.9883C611.262 81.3607 612.43 84.8197 614.766 87.3652C617.161 89.9408 620.321 91.2285 624.244 91.2285C628.197 91.2285 631.357 89.9557 633.723 87.4102C636.089 84.8646 637.271 81.4655 637.271 77.2129C637.271 72.9603 636.089 69.5612 633.723 67.0156C631.327 64.4401 628.167 63.1523 624.244 63.1523C620.381 63.1523 617.251 64.4401 614.855 67.0156C612.46 69.5911 611.262 72.9154 611.262 76.9883Z" fill="#9B9B9B"/>
</svg>
