<svg width="341" height="91" viewBox="0 0 341 91" fill="none" xmlns="http://www.w3.org/2000/svg">
<path d="M278.54 5.09583e-09C277.49 -3.55466e-05 276.45 0.207461 275.48 0.610622C274.51 1.01378 273.629 1.60472 272.886 2.34969C272.143 3.09467 271.554 3.9791 271.152 4.95247C270.751 5.92584 270.544 6.9691 270.544 8.02267C270.544 9.07625 270.751 10.1195 271.152 11.0929C271.554 12.0663 272.143 12.9507 272.886 13.6957C273.629 14.4406 274.51 15.0316 275.48 15.4347C276.45 15.8379 277.49 16.0454 278.54 16.0453C279.59 16.0454 280.63 15.8379 281.601 15.4347C282.571 15.0316 283.452 14.4406 284.195 13.6957C284.937 12.9507 285.526 12.0663 285.928 11.0929C286.33 10.1195 286.537 9.07625 286.537 8.02267C286.537 6.9691 286.33 5.92585 285.928 4.95247C285.526 3.9791 284.937 3.09467 284.195 2.34969C283.452 1.60472 282.571 1.01377 281.601 0.61061C280.63 0.20745 279.59 -3.75451e-05 278.54 5.09583e-09ZM111.102 0.108337V69.4534H124V0.108348L111.102 0.108337ZM327.876 0.108337V24.299C323.838 21.7367 319.335 20.2913 315.204 20.2913C301.333 20.2913 290.088 30.891 290.088 45.6092C290.088 59.5351 300.723 70.8242 315.204 70.8242C326.745 70.8242 341 64.418 341 38.8473V0.108348L327.876 0.108337ZM80.781 20.1713C66.7845 20.1713 55.438 30.853 55.438 45.5C55.4379 60.2846 66.7845 70.8287 80.781 70.8287C94.7776 70.8287 106.124 60.2846 106.124 45.5C106.124 31.5114 95.9416 20.1713 80.781 20.1713ZM152.624 20.1713C139.565 20.1713 128.978 31.5114 128.978 45.5C128.978 59.4886 138.861 70.8287 152.624 70.8287C159.906 70.8287 164.911 67.4757 168.124 62.7219V69.4534H181.022V21.7758H168.124V28.2369C164.973 23.5608 160.026 20.1713 152.624 20.1713ZM216.095 20.1713C209.932 20.1713 204.975 22.2001 201.953 27.9648V21.7758H189.055V69.4534H201.953V45.3854C201.953 36.2166 208.866 32.0907 216.095 32.0907V20.1713ZM241.438 20.1713C227.441 20.1713 216.095 30.853 216.095 45.5C216.095 60.2846 227.441 70.8287 241.438 70.8287C255.435 70.8287 266.781 60.2846 266.781 45.5C266.781 31.5114 256.598 20.1713 241.438 20.1713ZM25.7956 20.285C6.56206 20.285 0 35.2467 0 52.262V91H13.1241V66.8102C17.1622 69.3726 21.665 70.818 25.7956 70.818C39.6672 70.818 50.9124 60.2183 50.9124 45.5C50.9124 31.5741 40.8208 20.285 25.7956 20.285ZM271.759 21.7758V69.4534H285.109V21.7758L271.759 21.7758ZM154.887 32.3199C159.299 32.3199 167.898 36.2166 167.898 45.5C167.898 52.9813 161.562 58.6801 154.887 58.6801C147.012 58.6801 142.102 53.0201 142.102 45.5C142.102 38.5088 146.854 32.3199 154.887 32.3199ZM315.318 32.429C321.766 32.429 327.423 37.8616 327.423 45.4058C327.423 50.1643 324.178 58.3308 315.318 58.3308C308.089 58.3308 302.985 51.6904 302.985 45.4058C302.985 38.2138 308.778 32.429 315.318 32.429ZM80.781 32.549C86.8905 32.549 93 37.821 93 45.6145C93 53.2409 86.8905 58.68 80.781 58.68C74.5588 58.68 68.562 53.2409 68.562 45.6145C68.562 37.9206 74.4453 32.549 80.781 32.549ZM241.438 32.549C247.547 32.549 253.657 37.821 253.657 45.6145C253.657 53.2409 247.547 58.68 241.438 58.68C235.216 58.68 229.219 53.2409 229.219 45.6145C229.219 37.9206 235.102 32.549 241.438 32.549ZM25.6825 32.7782C32.911 32.7782 38.0146 39.4186 38.0146 45.7031C38.0146 52.8952 32.2225 58.68 25.6825 58.68C19.2336 58.68 13.5766 53.2473 13.5766 45.7031C13.5766 40.9447 16.822 32.7782 25.6825 32.7782Z" fill="black"/>
</svg>
